<?xml version="1.0" encoding="UTF-8"?>
<svg id="Layer_2" data-name="Layer 2" xmlns="http://www.w3.org/2000/svg" viewBox="0 0 153.76 320.66">
  <defs>
    <style>
      .cls-1 {
        fill: #ee7a3c;
      }
    </style>
  </defs>
  <g id="Layer_1-2" data-name="Layer 1">
    <g>
      <path class="cls-1" d="M29.41,127.38c5.27-.37,10.8.47,15.7,2.47,15.02,6.12,17.87,24.51,36.54,25.84s28.31-15.78,50.12-7.22c31.35,12.3,20.91,61.53-15.22,58.68-22.37-1.76-23.59-27.58-43.89-29.47s-29.43,19.57-53.61,9.72c-30.04-12.24-23.02-57.64,10.37-60.01Z"/>
      <path class="cls-1" d="M42.37,54.47c6.43-.73,13.69.13,19.4,3.27,11.65,6.41,15.16,21.38,30.83,22.57,16.46,1.25,25.76-12.84,44.43-5.52,31.55,12.37,15.06,63.22-21.1,53.58-13.59-3.62-17.55-20.85-31.43-23.97-16.39-3.69-26.38,11.1-43.54,7.63-32.12-6.5-29.93-54.02,1.41-57.56Z"/>
      <path class="cls-1" d="M46.36,203.28c7.93-.96,16.2,1.22,22.3,6.37,9.13,7.7,9.49,17.91,23.22,21.7,17.17,4.75,30.29-12.56,48.04-1.64,21.42,13.17,10.2,47.53-15.86,45.83-19.76-1.29-18.62-20.55-35.25-24.64-17.91-4.4-31.77,16.07-51.66,4.77-21.67-12.31-15.83-49.37,9.22-52.39Z"/>
      <ellipse class="cls-1" cx="92.11" cy="23.89" rx="23.87" ry="23.89"/>
      <ellipse class="cls-1" cx="92.39" cy="301.65" rx="19" ry="19.02"/>
    </g>
  </g>
</svg>